<svg viewBox="0 411 935 390" xmlns="http://www.w3.org/2000/svg" xmlns:xlink="http://www.w3.org/1999/xlink">
  <defs>
    <path d="M348.3 726.3h-35.4v-20.5c-13.4 15.4-24.8 23.1-37.2 23.1-10.9 0-18.4-5.1-22.2-14.4-2.3-5.6-3.9-14.4-3.9-27.3v-149H285v152.7c.8 5.2 3 7.1 7.5 7.1 6.8 0 12.9-5.8 20.4-16.4V538.2h35.4v188.1z" id="u"/>
    <mask id="tube">
      <rect x="0" y="411" width="935" height="390" fill="white"/>
      <path d="M499.2 726.3h-37.3V512.1h-39.1v-35.4h117.3v35.4h-40.9v214.2zM819.5 590.2c0-17.4 4.8-22.1 16.1-22.1 11.1 0 15.6 5.2 15.6 22.4v20.3h-31.7v-20.6zm67.1 48.5v-38c0-19.9-3.9-34.5-10.9-43.9-9.5-12.7-22.9-19.5-39.8-19.5-17.2 0-30.7 6.8-40.4 19.5-7.2 9.4-11.4 24.8-11.4 44.7v65.2c0 19.8 4.6 33.6 11.8 42.9 9.7 12.7 23.2 19.1 40.8 19.1 17.6 0 31.5-6.7 40.8-20.2 4.1-6 6.7-12.7 7.9-20.2.3-3.4 1.2-11.1 1.2-21.9v-5.3h-35.4c0 13.5 0 21.6-.3 23.4-1.9 9-6.7 13.5-15 13.5-11.6 0-16.5-8.6-16.4-25.8v-33.5h67.1zm-160.2 33.6c0 18.6-4.4 25.7-14.1 25.7-5.6 0-12-2.8-17.6-8.5V576.6c5.7-5.6 12-8.5 17.6-8.5 9.7 0 14.1 5.5 14.1 24.1v80.1zm3.9-135.3c-12.4 0-24.7 7.7-35.6 21.1v-81.4h-33.5v249.6h33.5l.1-18.8c11.2 14 23.5 21.2 35.5 21.2 13.4 0 23.3-7.2 27.8-21 2.2-7.9 3.7-20.1 3.7-37.3v-74.5c0-17.6-2.3-29.7-4.5-37.2-4.5-13.9-13.6-21.7-27-21.7z" fill="black"/>
      <use xlink:href="#u" transform="translate(285)" fill="black"/>      
    </mask>
  </defs>
  <path d="M927.6 495.2s-5.4-38.2-22.1-55c-21.1-22-44.8-22.2-55.7-23.4-77.8-5.6-194.6-5.6-194.6-5.6h-.2s-116.8 0-194.6 5.6c-10.9 1.2-34.6 1.4-55.7 23.4-16.7 16.8-22.1 55-22.1 55S377 540 377 584.8v42c0 44.8 5.6 89.6 5.6 89.6s5.4 38.1 22.1 54.9c21.1 22.1 48.9 21.4 61.3 23.7 44.5 4.3 189.1 5.6 189.1 5.6s116.9-.2 194.7-5.8c10.9-1.3 34.6-1.4 55.7-23.5 16.7-16.8 22.1-54.9 22.1-54.9s5.6-44.8 5.6-89.6v-42c0-44.8-5.6-89.6-5.6-89.6zM188.1 670.4c1.9 18.6-3.9 27.9-14.9 27.9s-16.7-9.3-14.9-27.9v-74.5c-1.8-18.6 3.9-27.3 14.9-27.3s16.8 8.7 14.9 27.3v74.5zm35.4-70.8c0-20.1-4-35.2-11.2-44.7-9.4-12.8-24.2-18.1-39.1-18.1-16.8 0-29.7 5.3-39.1 18.1-7.2 9.5-11.1 24.8-11.1 44.9l-.1 66.9c0 20 3.5 33.8 10.7 43.2 9.5 12.8 24.7 19.6 39.6 19.6 14.9 0 30.4-6.8 39.9-19.6 7.1-9.4 10.4-23.2 10.4-43.2v-67.1zM83.8 623.8v102.5H46.6V623.8S8 498.3 0 474.8h39.1L65.3 573l26-98.2h39.1l-46.6 149z" fill="currentColor" mask="url(#tube)"/>
  <use xlink:href="#u" fill="currentColor"/>
</svg>
