<svg viewBox="288 348 362 523" xmlns="http://www.w3.org/2000/svg" xmlns:xlink="http://www.w3.org/1999/xlink">
  <path d="M553.7 426.9H384.1v-73.3h169.6zm0 21.7v2.4h-25.1c-1.6-1.4-2.9-2.8-3.9-3.9h29zm0 20.3c0 1.1-.1 2.1-.1 3.2h-18.3l.1-3.9h18.3v.7m-3.5 24.3h-16l.2-4h16.8c-.3 1.4-.6 2.7-1 4m-8.6 21h-8.4l.2-3.9h10.3c-.7 1.3-1.4 2.7-2.1 3.9m-14.9 20.7l-.4.4H411.6c-.1-.1-.2-.3-.4-.4-1-1.1-2.1-2.3-3.1-3.5h121.7c-1 1.2-2 2.4-3.1 3.5M500.6 556c-.3.1-.5.3-.8.4h-61.5c-.3-.1-.6-.3-.9-.4-1.8-1.1-3.7-2.3-5.5-3.5h74.3c-1.9 1.2-3.7 2.4-5.6 3.5m-104.4-41.8c-.7-1.2-1.4-2.6-2-3.9h10.6l.2 3.9zm-8.6-21c-.4-1.3-.7-2.6-1-4h17.2l.1 4zm-3.4-21.1c0-1.1-.1-2.1-.1-3.2v-.7h18.6l.2 3.9zm86.7 27.2v-54.7c1.8-2.3 10.8-11.6 27.8-1.1.5.4 2.8 2.2 6.1 3.6 3.8 1.5 8.9 2.6 14.6.5v3.4c-.1 4.3-.2 10.4-.4 17.2v3.9l-.3 17.1c-.1 1.4-.1 2.7-.1 4-.1 7.6-.3 13.3-.3 14-7.6 2.7-15.5-2.9-15.5-3-17.4-11.6-27.4-8.1-31.9-4.9m-52.1-51.7c5.7 2.1 10.8 1 14.6-.5 3.3-1.4 5.6-3.2 6.1-3.6 17.4-10.8 26.4-.7 28 1.3v54.5c-4.6-3.3-14.6-6.8-32 4.9-.2.1-8 5.7-15.6 3 0-.7-.1-6.4-.3-14 0-1.3 0-2.6-.1-4l-.3-17.1v-3.9c-.2-6.8-.3-12.9-.4-17.2v-3.4m-12.7 20.6c-.3-6-.5-10.2-.5-10.7 3.7-1.8 6.7-4.3 8.8-6.5.4-.4.8-.7 1.1-1.1v1.1l.3 17.2.1 3.9.3 17.1.1 4 .3 16.3 1 .4c.3.2.7.3 1.1.4 4.2 1.6 8.4 1.1 11.7 0 4-1.2 6.8-3.3 7-3.4 15.1-10.2 23.7-7.8 27.7-5.2 2.1 1.1 3.1 3.1 3.1 3.1s-.7 2.9-2.6 5.5c-.1.2-.2.4-.4.6-1.1 1.3-2.5 2.4-4 3.3-14.3 9.2-46.1 5.3-52.7 4.3 0-.4-.1-1.9-.2-4.3-.1-1.1-.1-2.4-.2-3.9-.2-4.6-.5-10.7-.8-17.1-.1-1.3-.1-2.6-.2-4-.3-5.9-.6-11.9-.8-17.1-.1-1.4-.2-2.7-.2-3.9m74.4 51.8c-1.8 3.1-5.6 5-11.4 5h-.1c-5.9 0-9.5-1.9-11.3-5 3.6-1.8 6.5-3.7 8.8-5.8h-.1c1-1 2-2.1 2.7-3.3.8 1.2 1.7 2.3 2.7 3.3h-.1c2.2 2.1 5.1 4 8.8 5.8m51.6-51.8c0 1.2-.1 2.5-.2 3.9-.2 5.2-.5 11.2-.8 17.1-.1 1.4-.1 2.7-.2 4-.3 6.4-.6 12.5-.8 17.1-.1 1.5-.1 2.8-.2 3.9-.1 2.4-.2 3.9-.2 4.3-6.6 1-38.5 4.9-52.7-4.3-1.6-.9-3-2-4-3.3-.2-.2-.3-.4-.4-.6-2-2.5-2.6-5.5-2.6-5.5s1.1-2 3.1-3.1c3.9-2.5 12.5-5 27.8 5.2.1.2 2.9 2.2 6.9 3.4 3.3 1.1 7.5 1.6 11.7 0 .4-.1.8-.2 1.1-.4l1-.4.3-16.3.1-4 .3-17.1.1-3.9.3-17.2v-1.1c.3.4.7.7 1.1 1.1 2.1 2.2 5 4.7 8.8 6.5 0 .5-.2 4.7-.5 10.7m-148-19.6v-1.5h29.4c-1 1.1-2.3 2.5-3.9 3.9h-25.5zm172-99.9H379.2v120.2c.1 4.6.4 9.1 1.1 13.5l.6 3.9c.7 3.6 1.6 7 2.7 10.4l.9 3.1 1.5 3.9c.8 2.3 1.8 4.5 2.8 6.6.6 1.3 1.3 2.7 2 3.9.5 1 1 2 1.6 3 .7 1.3 1.5 2.6 2.3 3.9 2.3 3.6 4.7 7 7.3 10.3.9 1.2 1.9 2.4 2.9 3.5.1.1.2.3.4.4.9 1.1 1.9 2.2 2.9 3.3 4.7 5 9.7 9.5 14.8 13.4.2.2.5.3.7.5 1.6 1.2 3.2 2.3 4.8 3.5.3.1.5.3.8.4 5.9 4 11.9 7.2 17.7 9.5 3.6 1.5 7.1 2.7 10.4 3.5 4.2 1 8.1 1.6 11.7 1.6 3.6 0 7.5-.6 11.6-1.6 3.3-.8 6.8-2 10.4-3.5 5.8-2.3 11.7-5.5 17.7-9.5.2-.1.4-.3.7-.4 1.6-1.2 3.2-2.3 4.8-3.5.2-.2.4-.3.7-.5 5.1-3.9 10.1-8.4 14.8-13.4.9-1.1 1.9-2.2 2.8-3.3.2-.1.3-.3.4-.4 1-1.1 2-2.3 2.9-3.5 2.6-3.3 5-6.7 7.3-10.3.7-1.3 1.5-2.6 2.3-3.9.5-1 1-2 1.6-3 .6-1.2 1.3-2.6 1.9-3.9 1-2.1 2-4.3 2.9-6.6.5-1.3 1-2.6 1.4-3.9.5-1.4.9-2.8 1.3-4.2.9-3 1.7-6.1 2.3-9.3l.6-3.9c.7-4.4 1-8.9 1.1-13.5V348.7z"/>
  <path d="M403.6 370.9c0 .1-.7.9-1.8 1-.5 0-1.3-.1-2.2-1l-.4-.4.3-.5c.1-.1.5-.8 1.4-1 .8-.2 1.6 0 2.6.7l.6.5zm43.4 30.7c-2.9.2-6.1.3-10.8-1.3-20.5.9-29.5-6.4-30.5-12.4-.6-3.6 1.8-6.5 5.9-7.2 1.7-.3 2.3 2.4.4 2.7-2.6.4-3.9 2-3.6 4.1.6 4 7.9 10.5 25.8 10.2v-.1c5.2-.1 10.9-2.6 10.9-2.6s-8.3-1.7-11.6-4.1c-.1-.1 7.2-5.2 8-7.3-7.3.6-14.3.4-20.4-.6-3.5-1.8-6.5-4.3-8.5-7-.3-10.2-5.6-11.3-8.9-11.3-3.3 0-7.2 4-10.7 6 2.3 2.4 6.6 4.2 6.5 10.2-.1 14.8 7.1 18.8 11.4 19.7.2 6.4-1.4 11.5-3.9 16.1 4.1 1.3 7.9-2.6 9.2-4.2 2.1 2.7 4.3 4.2 9.3 5.4-2-2.5-3.7-9.6-3.6-14.9 3.8 2 12.4 10.6 16.2 16.2.2-1.8 0-6.7-.5-10.9 2.8-.8 5.8-2.5 9.4-6.7z" id="g"/>
  <use xlink:href="#g" transform="translate(51)"/>
  <use xlink:href="#g" transform="translate(102)"/>  <path d="M301.3 620.8v32.4c0 10.8 4.5 15.9 11.4 15.9 7.3 0 11.7-5 11.7-15.9v-32.4h10.1v31.7c0 17.1-8.8 24.7-22.2 24.7-12.8 0-21.1-7.2-21.1-24.6v-31.8h10.1zm44.3 27.3c0-4.6-.1-8.4-.3-11.9h8.8l.5 6.1h.3c1.7-3.2 6.1-7 12.7-7 7 0 14.3 4.5 14.3 17.2v23.8h-10.2v-22.6c0-5.7-2.1-10.1-7.6-10.1-4 0-6.8 2.8-7.9 5.9-.3.8-.5 2.1-.5 3.2v23.6h-10.1v-28.2zm52-18.1c-3.5 0-5.8-2.5-5.8-5.7 0-3.3 2.4-5.8 5.9-5.8 3.7 0 6 2.5 6 5.8 0 3.2-2.3 5.7-6 5.7zm-4.9 6.2h10.1v40.1h-10.1zm27.4 0l6.5 20.4c1.2 3.5 2 6.7 2.7 10h.3c.7-3.3 1.6-6.5 2.7-10l6.4-20.4h10.6L434 676.3h-10l-14.8-40.1h10.9zm68.1 22.9c.2-1 .4-2.5.4-4.4 0-8.7-4.3-19.4-17.3-19.4-12.9 0-19.6 10.4-19.6 21.5 0 12.3 7.6 20.3 20.7 20.3 5.8 0 10.5-1.1 14-2.5l-1.5-7c-3.1 1.1-6.4 1.8-11.1 1.8-6.5 0-12.1-3.1-12.4-10.4zm-26.8-7.2c.5-4.1 3.1-9.7 9.3-9.7 6.8 0 8.4 6 8.3 9.7h-17.6zm35.4-2.8c0-5.3-.1-9.3-.3-12.9h8.8l.3 7.7h.3c2-5.7 6.7-8.6 11-8.6 1 0 1.6.1 2.4.2v9.6c-1-.2-1.9-.3-3.1-.3-4.8 0-8.2 3.1-9.1 7.7-.1.9-.2 1.9-.2 3v20.8h-10.2l.1-27.2zm28.8 17.9c2.2 1.4 6.6 2.9 10.2 2.9 4.4 0 6.4-1.9 6.4-4.5 0-2.7-1.6-4.1-6.5-5.8-7.9-2.7-11.2-7-11.1-11.7 0-7.1 5.8-12.6 15.2-12.6 4.4 0 8.3 1.1 10.6 2.4l-2 7.1c-1.7-.9-4.9-2.3-8.5-2.3-3.6 0-5.6 1.8-5.6 4.3s1.9 3.7 7 5.6c7.3 2.6 10.7 6.3 10.7 12.2 0 7.3-5.7 12.6-16.3 12.6-4.8 0-9.2-1.2-12.2-2.8l2.1-7.4zm39.7-37c-3.5 0-5.8-2.5-5.8-5.7 0-3.3 2.4-5.8 6-5.8s5.9 2.5 5.9 5.8c0 3.2-2.3 5.7-6 5.7zm-4.9 6.2h10.1v40.1h-10.1zm34.3-10.3v10.3h9.6v7.6h-9.6v17.7c0 4.9 1.3 7.4 5.2 7.4 1.8 0 2.8-.2 3.9-.5l.2 7.7c-1.5.6-4.2 1.1-7.4 1.1-3.7 0-6.8-1.3-8.7-3.3-2.1-2.3-3.1-6-3.1-11.3v-18.8H579v-7.6h5.8v-7.4l9.9-2.9zm25.8 10.3l7.2 21.5c.8 2.5 1.7 5.6 2.3 7.8h.2c.7-2.3 1.4-5.3 2.2-7.9l6.2-21.4h10.8l-10 27.4c-5.5 14.9-9.2 21.6-13.9 25.7-4 3.5-8.1 4.8-10.7 5.2l-2.2-8.6c1.7-.4 3.8-1.3 5.8-2.7 1.9-1.3 4.2-3.7 5.6-6.4.4-.7.6-1.3.6-1.8 0-.4-.1-1-.5-2l-14.8-36.8h11.2zM308.5 757c10.1 0 20.5-6.6 20.5-21.3 0-12.2-8-20.6-19.9-20.6-12.1 0-20.8 8.1-20.8 21.2 0 12.9 8.8 20.7 20.1 20.7zm0-7.4c-6 0-9.8-5.8-9.8-13.5 0-6.7 2.9-13.6 10-13.6 7 0 9.8 7.1 9.8 13.4 0 8.1-4.1 13.7-9.9 13.7h-.1zm29.9 6.5v-32.5H333V716h5.4v-1.7c0-5.2 1.4-10.4 4.9-13.7 3-2.8 7-3.9 10.5-3.9 2.7 0 4.8.5 6.4 1l-.7 7.8c-1.1-.4-2.4-.7-4.3-.7-5 0-6.7 4.2-6.7 9.1v2.1h8.8v7.6h-8.7v32.5h-10.2zm55.8 0l-18-55.5h11.1l7.6 25.2c2.1 7 4 13.5 5.4 20.2h.2c1.4-6.5 3.5-13.3 5.6-20l8.1-25.4H425l-19.2 55.5h-11.6zm41.9-46.3c-3.6 0-5.9-2.5-5.9-5.8 0-3.2 2.4-5.7 6-5.7s5.9 2.5 6 5.7c0 3.3-2.4 5.8-6 5.8zm-5 6.2h10.2v40.1h-10.2zm50.5 38.9c-2.1 1-6.3 2-11.3 2-12.6 0-20.7-8-20.7-20.5 0-12 8.2-21.3 22.3-21.3 3.7 0 7.5.8 9.8 1.9l-1.8 7.6c-1.6-.8-4.1-1.6-7.7-1.6-7.7 0-12.3 5.6-12.2 13 0 8.2 5.4 12.9 12.3 12.9 3.4 0 5.9-.7 7.9-1.5l1.4 7.5zm20.4-49.2V716h9.6v7.6H502v17.6c0 4.9 1.3 7.4 5.1 7.4 1.9 0 2.8-.1 4-.4l.2 7.7c-1.6.6-4.2 1-7.4 1-3.7 0-6.8-1.2-8.7-3.3-2.2-2.3-3.2-5.9-3.2-11.2v-18.8h-5.7V716h5.7v-7.4l10-2.9zm34.4 51.3c10.1 0 20.5-6.6 20.5-21.3 0-12.2-8-20.6-19.9-20.6-12.1 0-20.8 8.1-20.8 21.2 0 12.9 8.8 20.7 20.1 20.7zm0-7.4c-6 0-9.8-5.8-9.8-13.5 0-6.7 2.9-13.6 10-13.6 7 0 9.8 7.1 9.8 13.4 0 8.1-4.1 13.7-9.9 13.7h-.1zm28.9-20.7c0-5.4-.1-9.3-.3-12.9h8.7l.4 7.6h.3c2-5.6 6.6-8.5 11-8.5 1 0 1.5 0 2.3.2v9.6c-.9-.2-1.8-.3-3-.3-4.8 0-8.2 3-9.1 7.6-.2.9-.2 2-.2 3.1v20.8h-10.2l.1-27.2zm34.2-19.1c-3.5 0-5.8-2.5-5.8-5.8 0-3.2 2.4-5.7 6-5.7s5.9 2.5 5.9 5.7c0 3.3-2.3 5.8-6 5.8zm-4.9 6.2h10.1v40.1h-10.1zm52.1 16c0-8.8-3.7-16.9-16.5-16.9-6.3 0-11.5 1.7-14.5 3.6l2 6.5c2.7-1.7 6.8-3 10.7-3 7.1 0 8.2 4.4 8.2 7v.7c-14.8-.1-23.8 5-23.8 15.2 0 6.1 4.5 11.9 12.6 11.9 5.2 0 9.4-2.2 11.9-5.4h.2l.7 4.5h9.1c-.4-2.5-.6-6-.6-9.7zm-9.9 10c0 .7 0 1.5-.2 2.2-1 2.9-3.9 5.5-8 5.5-3.2 0-5.7-1.8-5.7-5.7 0-6.1 6.8-7.6 13.9-7.5v5.5z"/>
  <g transform="translate(287.8 855.1)">
    <path d="M5.36 0v-48.2h26.1v5.23h-19.8v15.23H30.3v5.14H11.65v17.38h20.88V0z"/>
    <use xlink:href="#b" transform="translate(35.2)"/>
    <use xlink:href="#c" transform="translate(74.8)"/>
    <use xlink:href="#d" transform="translate(114.3)"/>
    <use xlink:href="#b" transform="translate(131)"/>
    <use xlink:href="#e" transform="translate(170.7)"/>
    <use xlink:href="#e" transform="translate(206.4)"/>
    <path d="M5.22 0v-23.8c0-4.08-.07-7.6-.3-10.8h5.52l.3 6.8h.2c1.57-4.66 5.44-7.6 9.65-7.6.6 0 1.1.08 1.7.15v5.93c-.68-.07-1.3-.14-2.18-.14-4.43 0-7.58 3.36-8.43 8-.15.94-.2 1.94-.2 2.94V0z" transform="translate(242.2)"/>
    <use xlink:href="#d" transform="translate(265.9)"/>
    <use xlink:href="#b" transform="translate(282.6)"/>
    <use xlink:href="#c" transform="translate(322.2)"/>
  </g>
  <defs>
    <path d="M5.22 0v-25.24c0-3.64-.07-6.5-.3-9.36h5.6l.35 5.64H11c1.72-3.22 5.73-6.43 11.45-6.43 4.8 0 12.23 2.9 12.23 14.78V0h-6.3v-19.95c0-5.57-2.07-10.3-8-10.3-4.08 0-7.3 2.94-8.44 6.44-.3.74-.43 1.9-.43 2.9V0z" id="b"/>
    <path d="M19.3-4.93c3.94 0 7.44-2.44 8.73-6.5.35-1 .5-2.23.5-3.37v-6.22c0-1-.07-1.93-.36-2.8-1.14-3.7-4.15-6.7-8.8-6.7-6 0-10.3 5.07-10.3 13.14 0 6.73 3.5 12.45 10.23 12.45zm-2.07 19.87c-4.14 0-8.72-1-11.5-2.86L7.3 7.22c2.27 1.5 5.85 2.8 10.14 2.8C23.88 10 28.6 6.64 28.6-2.15v-3.8h-.14c-1.86 3.22-5.65 5.8-11 5.8C8.86-.15 2.7-7.45 2.7-17.1c0-11.7 7.65-18.3 15.65-18.3 6 0 9.23 3.08 10.8 6h.15l.2-5.2h5.58c-.2 2.42-.28 5.28-.28 9.43v20.1c0 8-1.64 12.8-4.93 15.86-3.44 3.03-8.3 4.1-12.67 4.1z" id="c"/>
    <path d="M5.22 0v-34.6h6.3V0zm3-40.47c-2.3 0-3.8-1.8-3.8-3.86 0-2.22 1.58-3.93 3.95-3.93 2.28 0 3.86 1.7 3.86 3.93 0 2.07-1.5 3.86-3.94 3.86z" id="d"/>
    <path d="M27.17-20.66c.07-4-1.65-10.23-8.65-10.23-6.44 0-9.16 5.9-9.66 10.28zM19.74.7C9.14.7 2.72-6.35 2.72-16.72c0-10.44 6.22-18.66 16.3-18.66 11.3 0 14.23 9.95 14.23 16.3 0 1.3-.07 2.22-.22 2.94H8.8C8.94-7.7 14.3-4.2 20.6-4.2c4.5 0 7.28-.78 9.57-1.78l1.15 4.5C29.1-.5 25.24.7 19.74.7z" id="e"/>
  </defs>
</svg>
